<svg width="182" height="182" viewBox="0 0 182 182" fill="none" xmlns="http://www.w3.org/2000/svg">
<g id="carbon:delivery">
<path id="Vector" d="M22.75 91H91V102.375H22.75V91ZM11.375 62.5625H68.25V73.9375H11.375V62.5625Z" fill="black"/>
<path id="Vector_2" d="M170.165 94.4466L153.102 54.6341C152.664 53.6108 151.935 52.7387 151.006 52.1259C150.077 51.5132 148.988 51.1869 147.875 51.1875H130.813V39.8125C130.813 38.3041 130.214 36.8574 129.147 35.7908C128.08 34.7242 126.634 34.125 125.125 34.125H34.1253V45.5H119.438V116.912C116.846 118.417 114.578 120.42 112.764 122.806C110.951 125.192 109.627 127.913 108.87 130.812H73.1301C71.7458 125.451 68.4537 120.779 63.8708 117.671C59.288 114.563 53.729 113.234 48.2359 113.931C42.7429 114.629 37.6928 117.306 34.0324 121.461C30.372 125.616 28.3525 130.963 28.3525 136.5C28.3525 142.037 30.372 147.384 34.0324 151.539C37.6928 155.694 42.7429 158.371 48.2359 159.069C53.729 159.766 59.288 158.437 63.8708 155.329C68.4537 152.221 71.7458 147.549 73.1301 142.188H108.87C110.108 147.069 112.937 151.398 116.911 154.491C120.885 157.583 125.777 159.262 130.813 159.262C135.848 159.262 140.74 157.583 144.714 154.491C148.688 151.398 151.518 147.069 152.755 142.188H164.938C166.446 142.188 167.893 141.588 168.959 140.522C170.026 139.455 170.625 138.008 170.625 136.5V96.6875C170.626 95.917 170.469 95.1545 170.165 94.4466ZM51.1878 147.875C48.938 147.875 46.7388 147.208 44.8681 145.958C42.9975 144.708 41.5396 142.932 40.6786 140.853C39.8177 138.775 39.5924 136.487 40.0313 134.281C40.4702 132.074 41.5536 130.047 43.1444 128.457C44.7352 126.866 46.7621 125.782 48.9686 125.344C51.1751 124.905 53.4623 125.13 55.5408 125.991C57.6193 126.852 59.3958 128.31 60.6457 130.18C61.8956 132.051 62.5628 134.25 62.5628 136.5C62.5597 139.516 61.3603 142.407 59.2278 144.54C57.0952 146.673 54.2037 147.872 51.1878 147.875ZM130.813 62.5625H144.122L156.315 91H130.813V62.5625ZM130.813 147.875C128.563 147.875 126.364 147.208 124.493 145.958C122.623 144.708 121.165 142.932 120.304 140.853C119.443 138.775 119.217 136.487 119.656 134.281C120.095 132.074 121.179 130.047 122.769 128.457C124.36 126.866 126.387 125.782 128.594 125.344C130.8 124.905 133.087 125.13 135.166 125.991C137.244 126.852 139.021 128.31 140.271 130.18C141.521 132.051 142.188 134.25 142.188 136.5C142.185 139.516 140.985 142.407 138.853 144.54C136.72 146.673 133.829 147.872 130.813 147.875ZM159.25 130.812H152.755C151.502 125.941 148.668 121.622 144.697 118.535C140.726 115.447 135.843 113.764 130.813 113.75V102.375H159.25V130.812Z" fill="black"/>
</g>
</svg>
