<svg width="26" height="28" viewBox="0 0 26 28" fill="none" xmlns="http://www.w3.org/2000/svg">
<g id="fluent:call-12-regular">
<path id="Vector" d="M11.9752 5.95185C11.8026 5.48194 11.4567 5.09588 11.0086 4.87287C10.5604 4.64986 10.0438 4.6068 9.56489 4.75252C7.29455 5.45252 5.70789 7.40085 6.04855 9.65485C6.42955 12.1565 7.27726 14.5643 8.54755 16.7528C9.80426 18.9364 11.4518 20.8702 13.4079 22.4578C15.1672 23.8812 17.6359 23.4892 19.3766 21.8558C19.7427 21.5122 19.9649 21.0425 19.9982 20.5414C20.0316 20.0404 19.8736 19.5453 19.5562 19.1562L18.3102 17.6325C18.0607 17.3261 17.7248 17.1018 17.3462 16.9886C16.9675 16.8755 16.5637 16.8787 16.1869 16.9978L13.3122 17.9078L12.8106 17.3898C12.1785 16.7343 11.6256 16.0067 11.1632 15.2222C10.7145 14.4288 10.365 13.5832 10.1226 12.7045L9.92889 12.0162L12.1456 9.97452C12.4381 9.70292 12.6432 9.35052 12.7351 8.96208C12.8269 8.57363 12.8012 8.16666 12.6612 7.79285L11.9776 5.95418L11.9752 5.95185ZM8.87889 2.52185C9.92691 2.2012 11.0579 2.29348 12.0401 2.7798C13.0222 3.26612 13.7812 4.10964 14.1616 5.13752L14.8452 6.97618C15.1468 7.78397 15.2014 8.6632 15.0019 9.50207C14.8025 10.3409 14.3581 11.1016 13.7252 11.6872L12.5819 12.7395C12.7289 13.1455 12.9272 13.6098 13.1839 14.0602C13.4406 14.5035 13.7392 14.9072 14.0122 15.2362L15.4822 14.7695C16.3041 14.51 17.1848 14.5032 18.0106 14.7499C18.8363 14.9966 19.5691 15.4854 20.1139 16.1532L21.3599 17.6768C22.0524 18.5236 22.3975 19.6017 22.3256 20.6932C22.2537 21.7847 21.7701 22.8082 20.9726 23.5568C18.6532 25.7338 14.8662 26.6369 11.9426 24.2708C9.76402 22.5035 7.92906 20.3506 6.52922 17.9195C5.11207 15.4785 4.16622 12.7929 3.74089 10.0025C3.18089 6.28552 5.84789 3.45518 8.87889 2.52418V2.52185Z" fill="black"/>
</g>
</svg>
