<svg width="141" height="141" viewBox="0 0 141 141" fill="none" xmlns="http://www.w3.org/2000/svg">
<g id="mdi:cart-arrow-down">
<path id="Vector" d="M58.75 0V23.5H47L70.5 47L94 23.5H82.25V0M5.875 11.75V23.5H17.625L38.775 68.15L30.55 82.25C29.9625 84.0125 29.375 85.775 29.375 88.125C29.375 94.5875 34.6625 99.875 41.125 99.875H111.625V88.125H43.475C42.8875 88.125 42.3 87.5375 42.3 86.95V86.3625L47.5875 76.375H91.0625C95.175 76.375 99.2875 74.025 101.05 70.5L123.963 29.375L113.975 23.5L91.0625 64.625H49.9375L25.2625 11.75M41.125 105.75C34.6625 105.75 29.375 111.037 29.375 117.5C29.375 123.963 34.6625 129.25 41.125 129.25C47.5875 129.25 52.875 123.963 52.875 117.5C52.875 111.037 47.5875 105.75 41.125 105.75ZM99.875 105.75C93.4125 105.75 88.125 111.037 88.125 117.5C88.125 123.963 93.4125 129.25 99.875 129.25C106.338 129.25 111.625 123.963 111.625 117.5C111.625 111.037 106.338 105.75 99.875 105.75Z" fill="black"/>
</g>
</svg>
