<svg width="144" height="144" viewBox="0 0 144 144" fill="none" xmlns="http://www.w3.org/2000/svg">
<g id="solar:call-chat-linear">
<g id="Group">
<path id="Vector" d="M102 72C108.524 71.9989 114.87 69.8712 120.076 65.9392C125.282 62.0073 129.064 56.4855 130.85 50.2106C132.635 43.9357 132.327 37.2498 129.971 31.1661C127.615 25.0824 123.34 19.9326 117.794 16.4969C112.248 13.0613 105.733 11.5272 99.2364 12.1271C92.7401 12.7271 86.6164 15.4283 81.7933 19.8215C76.9703 24.2147 73.7108 30.0604 72.5087 36.4727C71.3067 42.8849 72.2277 49.5143 75.1322 55.356C75.6813 56.4167 75.8243 57.6414 75.5342 58.8L73.7462 65.478C73.5692 66.1392 73.5693 66.8353 73.7465 67.4965C73.9237 68.1576 74.2718 68.7605 74.7558 69.2445C75.2398 69.7285 75.8426 70.0765 76.5038 70.2538C77.1649 70.431 77.861 70.4311 78.5222 70.254L85.2002 68.466C86.3589 68.176 87.5835 68.3189 88.6442 68.868C92.7931 70.9337 97.3656 72.006 102 72Z" stroke="black" stroke-width="1.5"/>
<path id="Vector_2" d="M87.336 93.282L90.6 96.384L87.336 93.288V93.282ZM108.012 127.524L104.742 124.422L108.006 127.524H108.012ZM100.056 131.784L100.5 136.254L100.056 131.778V131.784ZM87.87 99.258L90.6 96.384L84.072 90.18L81.342 93.066L87.87 99.258ZM99.594 95.166L111.054 101.772L115.542 93.966L104.082 87.366L99.594 95.166ZM113.268 115.446L104.748 124.416L111.27 130.62L119.79 121.65L113.268 115.446ZM99.618 127.296C91.008 128.142 68.538 127.422 44.154 101.754L37.632 107.946C64.206 135.924 89.556 137.34 100.5 136.254L99.618 127.296ZM44.154 101.754C20.898 77.268 16.998 56.61 16.512 47.55L7.52401 48.036C8.12401 59.136 12.828 81.834 37.632 107.946L44.154 101.754ZM52.41 61.926L54.126 60.114L47.604 53.916L45.882 55.728L52.41 61.926ZM55.482 37.554L47.916 26.862L40.566 32.058L48.126 42.756L55.482 37.56V37.554ZM22.302 24.546L12.894 34.47L19.422 40.668L28.842 30.75L22.314 24.552L22.302 24.546ZM49.146 58.824C48.0661 57.7834 46.9761 56.7533 45.876 55.734L45.864 55.746L45.846 55.764C45.7407 55.8753 45.6405 55.9914 45.546 56.112C44.9579 56.8906 44.4925 57.7546 44.166 58.674C43.578 60.324 43.266 62.508 43.662 65.232C44.442 70.584 47.952 77.778 57.114 87.432L63.642 81.228C55.074 72.21 52.962 66.66 52.566 63.924C52.374 62.604 52.566 61.914 52.644 61.692L52.692 61.578C52.6291 61.6803 52.5546 61.7749 52.47 61.86L52.44 61.89C52.4343 61.8963 52.4283 61.9023 52.422 61.908L52.416 61.914C52.416 61.914 52.404 61.926 49.146 58.824ZM57.114 87.432C66.252 97.056 73.152 100.83 78.414 101.688C81.12 102.126 83.31 101.772 84.966 101.118C85.8835 100.758 86.7366 100.251 87.492 99.618C87.5658 99.552 87.6378 99.484 87.708 99.414L87.792 99.33C87.8124 99.3104 87.8324 99.2904 87.852 99.27C87.852 99.258 87.87 99.258 84.606 96.156C81.342 93.06 81.348 93.054 81.348 93.048L81.36 93.042L81.372 93.024C81.3822 93.0142 81.3922 93.0042 81.402 92.994L81.462 92.934C81.5324 92.866 81.6066 92.8019 81.684 92.742C81.744 92.706 81.738 92.718 81.66 92.748C81.54 92.796 81 92.988 79.86 92.802C77.448 92.406 72.24 90.282 63.642 81.228L57.114 87.432ZM47.916 26.862C41.832 18.258 29.664 16.8 22.308 24.552L28.824 30.75C31.962 27.45 37.494 27.708 40.566 32.058L47.916 26.862ZM16.512 47.55C16.38 45.15 17.43 42.756 19.422 40.668L12.894 34.47C9.67801 37.854 7.23001 42.552 7.52401 48.036L16.512 47.55ZM104.742 124.422C103.068 126.186 101.322 127.128 99.618 127.296L100.5 136.254C104.982 135.816 108.612 133.422 111.27 130.62L104.742 124.428V124.422ZM54.126 60.12C59.94 54 60.342 44.442 55.482 37.56L48.132 42.756C50.664 46.338 50.274 51.108 47.604 53.916L54.126 60.12ZM111.054 101.772C115.98 104.61 116.946 111.582 113.268 115.452L119.79 121.65C127.62 113.406 125.34 99.612 115.548 93.972L111.054 101.772ZM90.6 96.384C92.91 93.948 96.516 93.402 99.594 95.172L104.082 87.372C97.488 83.58 89.322 84.672 84.072 90.192L90.6 96.384Z" fill="black"/>
</g>
</g>
</svg>
