<svg width="36" height="35" viewBox="0 0 36 35" fill="none" xmlns="http://www.w3.org/2000/svg">
<g id="uil:cart">
<path id="Vector" d="M28.2083 10.2084H23.8333V8.75008C23.8333 7.20298 23.2187 5.71925 22.1248 4.62529C21.0308 3.53133 19.5471 2.91675 18 2.91675C16.4529 2.91675 14.9692 3.53133 13.8752 4.62529C12.7812 5.71925 12.1666 7.20298 12.1666 8.75008V10.2084H7.79165C7.40487 10.2084 7.03394 10.3621 6.76045 10.6356C6.48696 10.909 6.33331 11.28 6.33331 11.6667V27.7084C6.33331 28.8687 6.79425 29.9815 7.61472 30.802C8.43519 31.6225 9.54799 32.0834 10.7083 32.0834H25.2916C26.452 32.0834 27.5648 31.6225 28.3852 30.802C29.2057 29.9815 29.6666 28.8687 29.6666 27.7084V11.6667C29.6666 11.28 29.513 10.909 29.2395 10.6356C28.966 10.3621 28.5951 10.2084 28.2083 10.2084ZM15.0833 8.75008C15.0833 7.97653 15.3906 7.23467 15.9376 6.68769C16.4846 6.14071 17.2264 5.83341 18 5.83341C18.7735 5.83341 19.5154 6.14071 20.0624 6.68769C20.6094 7.23467 20.9166 7.97653 20.9166 8.75008V10.2084H15.0833V8.75008ZM26.75 27.7084C26.75 28.0952 26.5963 28.4661 26.3228 28.7396C26.0494 29.0131 25.6784 29.1667 25.2916 29.1667H10.7083C10.3215 29.1667 9.95061 29.0131 9.67712 28.7396C9.40363 28.4661 9.24998 28.0952 9.24998 27.7084V13.1251H12.1666V14.5834C12.1666 14.9702 12.3203 15.3411 12.5938 15.6146C12.8673 15.8881 13.2382 16.0417 13.625 16.0417C14.0118 16.0417 14.3827 15.8881 14.6562 15.6146C14.9297 15.3411 15.0833 14.9702 15.0833 14.5834V13.1251H20.9166V14.5834C20.9166 14.9702 21.0703 15.3411 21.3438 15.6146C21.6173 15.8881 21.9882 16.0417 22.375 16.0417C22.7618 16.0417 23.1327 15.8881 23.4062 15.6146C23.6797 15.3411 23.8333 14.9702 23.8333 14.5834V13.1251H26.75V27.7084Z" fill="white"/>
</g>
</svg>
