<svg width="27" height="16" viewBox="0 0 27 16" fill="none" xmlns="http://www.w3.org/2000/svg">
<g id="vk" clip-path="url(#clip0_22_154)">
<path id="Vector" d="M25.7031 1.05957C25.8838 0.449219 25.7031 0 24.834 0H21.958C21.2256 0 20.8887 0.385742 20.708 0.81543C20.708 0.81543 19.2432 4.38477 17.1729 6.69922C16.5039 7.36816 16.1963 7.58301 15.8301 7.58301C15.6494 7.58301 15.3711 7.36816 15.3711 6.75781V1.05957C15.3711 0.327148 15.166 0 14.5605 0H10.0391C9.58008 0 9.30664 0.341797 9.30664 0.65918C9.30664 1.35254 10.3418 1.51367 10.4492 3.4668V7.70508C10.4492 8.63281 10.2832 8.80371 9.91699 8.80371C8.94043 8.80371 6.56738 5.21973 5.16113 1.11816C4.87793 0.322266 4.59961 0 3.8623 0H0.986328C0.166016 0 0 0.385742 0 0.81543C0 1.57715 0.976562 5.36133 4.5459 10.3613C6.92383 13.7744 10.2734 15.625 13.3203 15.625C15.1514 15.625 15.376 15.2148 15.376 14.5068C15.376 11.2451 15.21 10.9375 16.1279 10.9375C16.5527 10.9375 17.2852 11.1523 18.9941 12.7979C20.9473 14.751 21.2695 15.625 22.3633 15.625H25.2393C26.0596 15.625 26.4746 15.2148 26.2354 14.4043C25.6885 12.7002 21.9922 9.19434 21.8262 8.95996C21.4014 8.41309 21.5234 8.16895 21.8262 7.68066C21.8311 7.67578 25.3418 2.73438 25.7031 1.05957Z" fill="black"/>
</g>
<defs>
<clipPath id="clip0_22_154">
<rect width="27" height="16" fill="white"/>
</clipPath>
</defs>
</svg>
